# xmcd
#
# Track frame offsets:
#	182
#	15995
#	34107
#	53267
#	68722
#	86587
#	99490
#	118320
#	136885
#	152570
#	171737
#	188085
#	203070
#
# Disc length: 3022 seconds
# Revision: 0
# Processed by: cddbd v1.5.2PL0 Copyright (c) Steve Scherf et al.
# Submitted via: dBpowerAMP V12.0
#
DISCID=a40bcc0d
DTITLE=Eagles - Selected Works: 1972-1999, Disc 1
DYEAR=2000
DGENRE=Country Rock
TTITLE0=Take It Easy
TTITLE1=Hollywood Waltz
TTITLE2=Already Gone
TTITLE3=Doolin' Dalton
TTITLE4=Midnight Flyer
TTITLE5=Tequila Sunrise
TTITLE6=Witchy Woman
TTITLE7=Train Leaves Here This Morning
TTITLE8=Outlaw Man
TTITLE9=Peaceful Easy Feeling
TTITLE10=James Dean
TTITLE11=Saturday Night
TTITLE12=On the Border
EXTD=
EXTT0=
EXTT1=
EXTT2=
EXTT3=
EXTT4=
EXTT5=
EXTT6=
EXTT7=
EXTT8=
EXTT9=
EXTT10=
EXTT11=
EXTT12=
PLAYORDER=
